<?xml version="1.0" encoding="UTF-8" standalone="no"?>
<svg
   version="1.1"
   width="44"
   height="44"
   id="svg10"
   sodipodi:docname="Logo.svg"
   inkscape:version="1.2 (dc2aedaf03, 2022-05-15)"
   xmlns:inkscape="http://www.inkscape.org/namespaces/inkscape"
   xmlns:sodipodi="http://sodipodi.sourceforge.net/DTD/sodipodi-0.dtd"
   xmlns="http://www.w3.org/2000/svg"
   xmlns:svg="http://www.w3.org/2000/svg">
  <defs
     id="defs14" />
  <sodipodi:namedview
     id="namedview12"
     pagecolor="#ffffff"
     bordercolor="#000000"
     borderopacity="0.25"
     inkscape:showpageshadow="2"
     inkscape:pageopacity="0.0"
     inkscape:pagecheckerboard="0"
     inkscape:deskcolor="#d1d1d1"
     showgrid="false"
     inkscape:zoom="5.6568542"
     inkscape:cx="21.655145"
     inkscape:cy="41.18897"
     inkscape:window-width="1920"
     inkscape:window-height="1009"
     inkscape:window-x="-8"
     inkscape:window-y="-8"
     inkscape:window-maximized="1"
     inkscape:current-layer="svg6" />
  <svg
     width="300"
     height="300"
     viewBox="0 0 300 300"
     fill="none"
     version="1.1"
     id="svg6">
    <g
       id="g299"
       transform="translate(-127.19055,-128)">
      <path
         d="m 149.23553,144.94376 c -2.65932,0 -4.81518,2.26169 -4.81518,5.05185 0,2.79005 2.15586,5.05174 4.81518,5.05174 2.65943,0 4.81517,-2.26169 4.81517,-5.05174 0,-2.79016 -2.15574,-5.05185 -4.81517,-5.05185 z"
         fill="#0d6efd"
         id="path2"
         style="stroke-width:1" />
      <path
         fill-rule="evenodd"
         clip-rule="evenodd"
         d="m 160.71807,166 h -11.79472 c -8.29802,-0.15111 -14.98049,-7.25796 -14.98049,-16 0,-8.83655 6.82782,-16 15.25035,-16 8.28575,0 15.02815,6.93263 15.24504,15.57072 l -0.0264,12.99106 C 164.19233,164.50098 162.62539,166 160.71807,166 Z m -21.29596,-18.29974 c 0.99869,-4.72087 5.01318,-8.25103 9.81342,-8.25103 5.55176,0 10.05226,4.72179 10.05226,10.54638 0,0.0436 4.8e-4,0.091 0.001,0.13962 0.001,0.10098 0.002,0.20741 -0.001,0.29748 v 10.03769 h -5.22986 v -1.21908 c -1.43159,0.82275 -3.07497,1.29054 -4.8224,1.29054 -4.80024,0 -8.81473,-3.53019 -9.81342,-8.25102 0.95613,-0.28124 1.65729,-1.20237 1.65729,-2.29523 0,-1.09297 -0.70116,-2.0141 -1.65729,-2.29535 z m -0.6634,3.97595 c 0.88841,0 1.60861,-0.75556 1.60861,-1.68759 0,-0.93215 -0.7202,-1.6877 -1.60861,-1.6877 -0.88841,0 -1.60861,0.75555 -1.60861,1.6877 0,0.93203 0.7202,1.68759 1.60861,1.68759 z"
         fill="#0d6efd"
         id="path4"
         style="stroke-width:1" />
    </g>
  </svg>
  <style
     id="style8">filter: none;filter: none;.light { :root }
.dark { :root }
</style>
</svg>
