<?xml version="1.0" encoding="UTF-8" standalone="no"?>
<svg
   width="42.122002"
   height="42.127998"
   fill="none"
   version="1.1"
   id="svg8"
   sodipodi:docname="Logo.svg"
   inkscape:version="1.2 (dc2aedaf03, 2022-05-15)"
   xmlns:inkscape="http://www.inkscape.org/namespaces/inkscape"
   xmlns:sodipodi="http://sodipodi.sourceforge.net/DTD/sodipodi-0.dtd"
   xmlns="http://www.w3.org/2000/svg"
   xmlns:svg="http://www.w3.org/2000/svg">
  <defs
     id="defs12">
    <filter
       style="color-interpolation-filters:sRGB"
       inkscape:label="Drop Shadow"
       id="filter329"
       x="-0.10308688"
       y="-0.10306917"
       width="1.2061738"
       height="1.2061383">
      <feFlood
         flood-opacity="0.678431"
         flood-color="rgb(80,80,80)"
         result="flood"
         id="feFlood319" />
      <feComposite
         in="flood"
         in2="SourceGraphic"
         operator="in"
         result="composite1"
         id="feComposite321" />
      <feGaussianBlur
         in="composite1"
         stdDeviation="1.5"
         result="blur"
         id="feGaussianBlur323" />
      <feOffset
         dx="0"
         dy="0"
         result="offset"
         id="feOffset325" />
      <feComposite
         in="SourceGraphic"
         in2="offset"
         operator="over"
         result="composite2"
         id="feComposite327" />
    </filter>
  </defs>
  <sodipodi:namedview
     id="namedview10"
     pagecolor="#ffffff"
     bordercolor="#000000"
     borderopacity="0.25"
     inkscape:showpageshadow="2"
     inkscape:pageopacity="0.0"
     inkscape:pagecheckerboard="0"
     inkscape:deskcolor="#d1d1d1"
     showgrid="false"
     inkscape:zoom="12.1"
     inkscape:cx="17.933884"
     inkscape:cy="21.570248"
     inkscape:window-width="1920"
     inkscape:window-height="1027"
     inkscape:window-x="-8"
     inkscape:window-y="-8"
     inkscape:window-maximized="1"
     inkscape:current-layer="svg8" />
  <path
     d="m 34.052,38.528 h 0.21 a 4.256,4.256 0 0 0 4.23,-3.753 l 0.03,-14.18 C 38.273,11.167 30.552,3.6000002 21.064,3.6000002 11.419,3.6000002 3.6000001,11.419 3.6000001,21.064 c 0,9.542 7.6519999,17.3 17.1549999,17.464 z"
     fill="#ffffff"
     id="path2"
     style="filter:url(#filter329)" />
  <path
     fill-rule="evenodd"
     clip-rule="evenodd"
     d="M 21.11,9.5480002 C 15.613,9.5480002 11.016,13.401 9.8720001,18.554 a 2.603,2.603 0 0 1 0,5.01 C 11.016,28.718 15.612,32.571 21.11,32.571 c 2.001,0 3.883,-0.51 5.522,-1.409 v 1.33 h 5.99 V 21.537 c 0.005,-0.145 0,-0.33 0,-0.477 0,-6.357 -5.155,-11.5109998 -11.512,-11.5109998 z M 15.596,21.059 a 5.514,5.514 0 1 1 11.028,0 5.514,5.514 0 0 1 -11.028,0 z"
     fill="#8b44ac"
     id="path4" />
  <path
     d="m 10.954,21.052 a 1.842,1.842 0 1 1 -3.6839999,0 1.842,1.842 0 0 1 3.6839999,0 z"
     fill="#8b44ac"
     id="path6" />
</svg>
